<?xml version="1.0" encoding="UTF-8" standalone="no"?>
<!DOCTYPE svg PUBLIC "-//W3C//DTD SVG 1.1//EN"
 "http://www.w3.org/Graphics/SVG/1.1/DTD/svg11.dtd">
<!-- Generated by graphviz version 13.1.0 (20250701.0955)
 -->
<!-- Title: src/driver_ads1110.h Pages: 1 -->
<svg width="642pt" height="232pt"
 viewBox="0.00 0.00 642.00 232.00" xmlns="http://www.w3.org/2000/svg" xmlns:xlink="http://www.w3.org/1999/xlink">
<g id="graph0" class="graph" transform="scale(1 1) rotate(0) translate(4 228)">
<title>src/driver_ads1110.h</title>
<!-- Node1 -->
<g id="Node000001" class="node">
<title>Node1</title>
<g id="a_Node000001"><a xlink:title="driver ads1110 header file">
<polygon fill="#999999" stroke="#666666" points="454.75,-224 349.5,-224 349.5,-204 454.75,-204 454.75,-224"/>
<text xml:space="preserve" text-anchor="middle" x="402.12" y="-210.5" font-family="Helvetica,sans-Serif" font-size="10.00">src/driver_ads1110.h</text>
</a>
</g>
</g>
<!-- Node2 -->
<g id="Node000002" class="node">
<title>Node2</title>
<g id="a_Node000002"><a xlink:href="driver__ads1110__interface_8h.html" target="_top" xlink:title="driver ads1110 interface header file">
<polygon fill="white" stroke="#666666" points="397.62,-168 276.62,-168 276.62,-136 397.62,-136 397.62,-168"/>
<text xml:space="preserve" text-anchor="start" x="284.62" y="-154.5" font-family="Helvetica,sans-Serif" font-size="10.00">interface/driver_ads1110</text>
<text xml:space="preserve" text-anchor="middle" x="337.12" y="-142.5" font-family="Helvetica,sans-Serif" font-size="10.00">_interface.h</text>
</a>
</g>
</g>
<!-- Node1&#45;&gt;Node2 -->
<g id="edge1_Node000001_Node000002" class="edge">
<title>Node1&#45;&gt;Node2</title>
<g id="a_edge1_Node000001_Node000002"><a xlink:title=" ">
<path fill="none" stroke="#63b8ff" d="M383.68,-195.98C374.27,-187.29 362.92,-176.81 353.78,-168.37"/>
<polygon fill="#63b8ff" stroke="#63b8ff" points="381.13,-198.39 390.86,-202.6 385.88,-193.24 381.13,-198.39"/>
</a>
</g>
</g>
<!-- Node12 -->
<g id="Node000012" class="node">
<title>Node12</title>
<g id="a_Node000012"><a xlink:href="driver__ads1110_8c.html" target="_top" xlink:title="driver ads1110 source file">
<polygon fill="white" stroke="#666666" points="520.75,-162 415.5,-162 415.5,-142 520.75,-142 520.75,-162"/>
<text xml:space="preserve" text-anchor="middle" x="468.12" y="-148.5" font-family="Helvetica,sans-Serif" font-size="10.00">src/driver_ads1110.c</text>
</a>
</g>
</g>
<!-- Node1&#45;&gt;Node12 -->
<g id="edge11_Node000001_Node000012" class="edge">
<title>Node1&#45;&gt;Node12</title>
<g id="a_edge11_Node000001_Node000012"><a xlink:title=" ">
<path fill="none" stroke="#63b8ff" d="M420.93,-195.9C433.03,-184.91 448.27,-171.05 458.1,-162.11"/>
<polygon fill="#63b8ff" stroke="#63b8ff" points="418.6,-193.29 413.56,-202.61 423.31,-198.47 418.6,-193.29"/>
</a>
</g>
</g>
<!-- Node3 -->
<g id="Node000003" class="node">
<title>Node3</title>
<g id="a_Node000003"><a xlink:href="driver__ads1110__basic_8h.html" target="_top" xlink:title="driver ads1110 basic header file">
<polygon fill="white" stroke="#666666" points="120.25,-100 0,-100 0,-68 120.25,-68 120.25,-100"/>
<text xml:space="preserve" text-anchor="start" x="8" y="-86.5" font-family="Helvetica,sans-Serif" font-size="10.00">example/driver_ads1110</text>
<text xml:space="preserve" text-anchor="middle" x="60.12" y="-74.5" font-family="Helvetica,sans-Serif" font-size="10.00">_basic.h</text>
</a>
</g>
</g>
<!-- Node2&#45;&gt;Node3 -->
<g id="edge2_Node000002_Node000003" class="edge">
<title>Node2&#45;&gt;Node3</title>
<g id="a_edge2_Node000002_Node000003"><a xlink:title=" ">
<path fill="none" stroke="#63b8ff" d="M265.18,-133.86C220.18,-123.13 162.88,-109.48 120.3,-99.34"/>
<polygon fill="#63b8ff" stroke="#63b8ff" points="264.32,-137.25 274.86,-136.17 265.95,-130.44 264.32,-137.25"/>
</a>
</g>
</g>
<!-- Node5 -->
<g id="Node000005" class="node">
<title>Node5</title>
<g id="a_Node000005"><a xlink:href="driver__ads1110__shot_8h.html" target="_top" xlink:title="driver ads1110 shot header file">
<polygon fill="white" stroke="#666666" points="258.25,-100 138,-100 138,-68 258.25,-68 258.25,-100"/>
<text xml:space="preserve" text-anchor="start" x="146" y="-86.5" font-family="Helvetica,sans-Serif" font-size="10.00">example/driver_ads1110</text>
<text xml:space="preserve" text-anchor="middle" x="198.12" y="-74.5" font-family="Helvetica,sans-Serif" font-size="10.00">_shot.h</text>
</a>
</g>
</g>
<!-- Node2&#45;&gt;Node5 -->
<g id="edge4_Node000002_Node000005" class="edge">
<title>Node2&#45;&gt;Node5</title>
<g id="a_edge4_Node000002_Node000005"><a xlink:title=" ">
<path fill="none" stroke="#63b8ff" d="M294.18,-130.61C273.64,-120.86 249.47,-109.38 230.51,-100.38"/>
<polygon fill="#63b8ff" stroke="#63b8ff" points="292.63,-133.75 303.17,-134.88 295.64,-127.43 292.63,-133.75"/>
</a>
</g>
</g>
<!-- Node7 -->
<g id="Node000007" class="node">
<title>Node7</title>
<g id="a_Node000007"><a xlink:href="driver__ads1110__interface__template_8c.html" target="_top" xlink:title="driver ads1110 interface template source file">
<polygon fill="white" stroke="#666666" points="397.62,-100 276.62,-100 276.62,-68 397.62,-68 397.62,-100"/>
<text xml:space="preserve" text-anchor="start" x="284.62" y="-86.5" font-family="Helvetica,sans-Serif" font-size="10.00">interface/driver_ads1110</text>
<text xml:space="preserve" text-anchor="middle" x="337.12" y="-74.5" font-family="Helvetica,sans-Serif" font-size="10.00">_interface_template.c</text>
</a>
</g>
</g>
<!-- Node2&#45;&gt;Node7 -->
<g id="edge6_Node000002_Node000007" class="edge">
<title>Node2&#45;&gt;Node7</title>
<g id="a_edge6_Node000002_Node000007"><a xlink:title=" ">
<path fill="none" stroke="#63b8ff" d="M337.12,-124.31C337.12,-116.12 337.12,-107.38 337.12,-100.22"/>
<polygon fill="#63b8ff" stroke="#63b8ff" points="333.63,-124.18 337.13,-134.18 340.63,-124.18 333.63,-124.18"/>
</a>
</g>
</g>
<!-- Node8 -->
<g id="Node000008" class="node">
<title>Node8</title>
<g id="a_Node000008"><a xlink:href="driver__ads1110__read__test_8h.html" target="_top" xlink:title="driver ads1110 read test header file">
<polygon fill="white" stroke="#666666" points="516.12,-100 416.12,-100 416.12,-68 516.12,-68 516.12,-100"/>
<text xml:space="preserve" text-anchor="start" x="424.12" y="-86.5" font-family="Helvetica,sans-Serif" font-size="10.00">test/driver_ads1110</text>
<text xml:space="preserve" text-anchor="middle" x="466.12" y="-74.5" font-family="Helvetica,sans-Serif" font-size="10.00">_read_test.h</text>
</a>
</g>
</g>
<!-- Node2&#45;&gt;Node8 -->
<g id="edge7_Node000002_Node000008" class="edge">
<title>Node2&#45;&gt;Node8</title>
<g id="a_edge7_Node000002_Node000008"><a xlink:title=" ">
<path fill="none" stroke="#63b8ff" d="M377.51,-130.34C396.45,-120.65 418.64,-109.3 436.07,-100.38"/>
<polygon fill="#63b8ff" stroke="#63b8ff" points="376.03,-127.17 368.72,-134.84 379.21,-133.4 376.03,-127.17"/>
</a>
</g>
</g>
<!-- Node10 -->
<g id="Node000010" class="node">
<title>Node10</title>
<g id="a_Node000010"><a xlink:href="driver__ads1110__register__test_8h.html" target="_top" xlink:title="driver ads1110 register test header file">
<polygon fill="white" stroke="#666666" points="634.12,-100 534.12,-100 534.12,-68 634.12,-68 634.12,-100"/>
<text xml:space="preserve" text-anchor="start" x="542.12" y="-86.5" font-family="Helvetica,sans-Serif" font-size="10.00">test/driver_ads1110</text>
<text xml:space="preserve" text-anchor="middle" x="584.12" y="-74.5" font-family="Helvetica,sans-Serif" font-size="10.00">_register_test.h</text>
</a>
</g>
</g>
<!-- Node2&#45;&gt;Node10 -->
<g id="edge9_Node000002_Node000010" class="edge">
<title>Node2&#45;&gt;Node10</title>
<g id="a_edge9_Node000002_Node000010"><a xlink:title=" ">
<path fill="none" stroke="#63b8ff" d="M405.92,-132.62C446.45,-121.79 496.84,-108.32 533.69,-98.48"/>
<polygon fill="#63b8ff" stroke="#63b8ff" points="405.26,-129.17 396.5,-135.14 407.06,-135.94 405.26,-129.17"/>
</a>
</g>
</g>
<!-- Node4 -->
<g id="Node000004" class="node">
<title>Node4</title>
<g id="a_Node000004"><a xlink:href="driver__ads1110__basic_8c.html" target="_top" xlink:title="driver ads1110 basic source file">
<polygon fill="white" stroke="#666666" points="120.25,-32 0,-32 0,0 120.25,0 120.25,-32"/>
<text xml:space="preserve" text-anchor="start" x="8" y="-18.5" font-family="Helvetica,sans-Serif" font-size="10.00">example/driver_ads1110</text>
<text xml:space="preserve" text-anchor="middle" x="60.12" y="-6.5" font-family="Helvetica,sans-Serif" font-size="10.00">_basic.c</text>
</a>
</g>
</g>
<!-- Node3&#45;&gt;Node4 -->
<g id="edge3_Node000003_Node000004" class="edge">
<title>Node3&#45;&gt;Node4</title>
<g id="a_edge3_Node000003_Node000004"><a xlink:title=" ">
<path fill="none" stroke="#63b8ff" d="M60.12,-56.31C60.12,-48.12 60.12,-39.38 60.12,-32.22"/>
<polygon fill="#63b8ff" stroke="#63b8ff" points="56.63,-56.18 60.13,-66.18 63.63,-56.18 56.63,-56.18"/>
</a>
</g>
</g>
<!-- Node6 -->
<g id="Node000006" class="node">
<title>Node6</title>
<g id="a_Node000006"><a xlink:href="driver__ads1110__shot_8c.html" target="_top" xlink:title="driver ads1110 shot source file">
<polygon fill="white" stroke="#666666" points="258.25,-32 138,-32 138,0 258.25,0 258.25,-32"/>
<text xml:space="preserve" text-anchor="start" x="146" y="-18.5" font-family="Helvetica,sans-Serif" font-size="10.00">example/driver_ads1110</text>
<text xml:space="preserve" text-anchor="middle" x="198.12" y="-6.5" font-family="Helvetica,sans-Serif" font-size="10.00">_shot.c</text>
</a>
</g>
</g>
<!-- Node5&#45;&gt;Node6 -->
<g id="edge5_Node000005_Node000006" class="edge">
<title>Node5&#45;&gt;Node6</title>
<g id="a_edge5_Node000005_Node000006"><a xlink:title=" ">
<path fill="none" stroke="#63b8ff" d="M198.12,-56.31C198.12,-48.12 198.12,-39.38 198.12,-32.22"/>
<polygon fill="#63b8ff" stroke="#63b8ff" points="194.63,-56.18 198.13,-66.18 201.63,-56.18 194.63,-56.18"/>
</a>
</g>
</g>
<!-- Node9 -->
<g id="Node000009" class="node">
<title>Node9</title>
<g id="a_Node000009"><a xlink:href="driver__ads1110__read__test_8c.html" target="_top" xlink:title="driver ads1110 read test source file">
<polygon fill="white" stroke="#666666" points="516.12,-32 416.12,-32 416.12,0 516.12,0 516.12,-32"/>
<text xml:space="preserve" text-anchor="start" x="424.12" y="-18.5" font-family="Helvetica,sans-Serif" font-size="10.00">test/driver_ads1110</text>
<text xml:space="preserve" text-anchor="middle" x="466.12" y="-6.5" font-family="Helvetica,sans-Serif" font-size="10.00">_read_test.c</text>
</a>
</g>
</g>
<!-- Node8&#45;&gt;Node9 -->
<g id="edge8_Node000008_Node000009" class="edge">
<title>Node8&#45;&gt;Node9</title>
<g id="a_edge8_Node000008_Node000009"><a xlink:title=" ">
<path fill="none" stroke="#63b8ff" d="M466.12,-56.31C466.12,-48.12 466.12,-39.38 466.12,-32.22"/>
<polygon fill="#63b8ff" stroke="#63b8ff" points="462.63,-56.18 466.13,-66.18 469.63,-56.18 462.63,-56.18"/>
</a>
</g>
</g>
<!-- Node11 -->
<g id="Node000011" class="node">
<title>Node11</title>
<g id="a_Node000011"><a xlink:href="driver__ads1110__register__test_8c.html" target="_top" xlink:title="driver ads1110 register test source file">
<polygon fill="white" stroke="#666666" points="634.12,-32 534.12,-32 534.12,0 634.12,0 634.12,-32"/>
<text xml:space="preserve" text-anchor="start" x="542.12" y="-18.5" font-family="Helvetica,sans-Serif" font-size="10.00">test/driver_ads1110</text>
<text xml:space="preserve" text-anchor="middle" x="584.12" y="-6.5" font-family="Helvetica,sans-Serif" font-size="10.00">_register_test.c</text>
</a>
</g>
</g>
<!-- Node10&#45;&gt;Node11 -->
<g id="edge10_Node000010_Node000011" class="edge">
<title>Node10&#45;&gt;Node11</title>
<g id="a_edge10_Node000010_Node000011"><a xlink:title=" ">
<path fill="none" stroke="#63b8ff" d="M584.12,-56.31C584.12,-48.12 584.12,-39.38 584.12,-32.22"/>
<polygon fill="#63b8ff" stroke="#63b8ff" points="580.63,-56.18 584.13,-66.18 587.63,-56.18 580.63,-56.18"/>
</a>
</g>
</g>
</g>
</svg>
