<?xml version="1.0" encoding="UTF-8" standalone="no"?>
<!DOCTYPE svg PUBLIC "-//W3C//DTD SVG 1.1//EN"
 "http://www.w3.org/Graphics/SVG/1.1/DTD/svg11.dtd">
<!-- Generated by graphviz version 13.1.0 (20250701.0955)
 -->
<!-- Title: ads1110_shot_init Pages: 1 -->
<svg width="282pt" height="444pt"
 viewBox="0.00 0.00 282.00 444.00" xmlns="http://www.w3.org/2000/svg" xmlns:xlink="http://www.w3.org/1999/xlink">
<g id="graph0" class="graph" transform="scale(1 1) rotate(0) translate(4 440)">
<title>ads1110_shot_init</title>
<!-- Node1 -->
<g id="Node000001" class="node">
<title>Node1</title>
<g id="a_Node000001"><a xlink:title="shot example init">
<polygon fill="#999999" stroke="#666666" points="93.25,-222 0,-222 0,-202 93.25,-202 93.25,-222"/>
<text xml:space="preserve" text-anchor="middle" x="46.62" y="-208.5" font-family="Helvetica,sans-Serif" font-size="10.00">ads1110_shot_init</text>
</a>
</g>
</g>
<!-- Node2 -->
<g id="Node000002" class="node">
<title>Node2</title>
<g id="a_Node000002"><a xlink:href="group__ads1110__base__driver.html#ga12f1f793cf0fa2205a0ce7475962ef1f" target="_top" xlink:title="close the chip">
<polygon fill="white" stroke="#666666" points="241.25,-436 161.5,-436 161.5,-416 241.25,-416 241.25,-436"/>
<text xml:space="preserve" text-anchor="middle" x="201.38" y="-422.5" font-family="Helvetica,sans-Serif" font-size="10.00">ads1110_deinit</text>
</a>
</g>
</g>
<!-- Node1&#45;&gt;Node2 -->
<g id="edge1_Node000001_Node000002" class="edge">
<title>Node1&#45;&gt;Node2</title>
<g id="a_edge1_Node000001_Node000002"><a xlink:title=" ">
<path fill="none" stroke="#63b8ff" d="M48.78,-222.31C52.96,-254.74 70.36,-355.59 129.25,-407 135.27,-412.26 142.59,-416.08 150.22,-418.85"/>
<polygon fill="#63b8ff" stroke="#63b8ff" points="149.08,-422.16 159.66,-421.68 151.09,-415.46 149.08,-422.16"/>
</a>
</g>
</g>
<!-- Node3 -->
<g id="Node000003" class="node">
<title>Node3</title>
<g id="a_Node000003"><a xlink:href="group__ads1110__base__driver.html#ga9fee93b4a7461ee38872c77130fafc05" target="_top" xlink:title="initialize the chip">
<polygon fill="white" stroke="#666666" points="236,-398 166.75,-398 166.75,-378 236,-378 236,-398"/>
<text xml:space="preserve" text-anchor="middle" x="201.38" y="-384.5" font-family="Helvetica,sans-Serif" font-size="10.00">ads1110_init</text>
</a>
</g>
</g>
<!-- Node1&#45;&gt;Node3 -->
<g id="edge2_Node000001_Node000003" class="edge">
<title>Node1&#45;&gt;Node3</title>
<g id="a_edge2_Node000001_Node000003"><a xlink:title=" ">
<path fill="none" stroke="#63b8ff" d="M49.9,-222.27C56.68,-250.36 79.41,-329.01 129.25,-369 136.77,-375.04 146.04,-379.17 155.37,-381.99"/>
<polygon fill="#63b8ff" stroke="#63b8ff" points="154.24,-385.31 164.79,-384.36 155.95,-378.52 154.24,-385.31"/>
</a>
</g>
</g>
<!-- Node4 -->
<g id="Node000004" class="node">
<title>Node4</title>
<g id="a_Node000004"><a xlink:href="group__ads1110__interface__driver.html#gae3ed663ce9367d3e79b18e435e70e25c" target="_top" xlink:title="interface print format data">
<polygon fill="white" stroke="#666666" points="264.12,-360 138.62,-360 138.62,-328 264.12,-328 264.12,-360"/>
<text xml:space="preserve" text-anchor="start" x="146.62" y="-346.5" font-family="Helvetica,sans-Serif" font-size="10.00">ads1110_interface_debug</text>
<text xml:space="preserve" text-anchor="middle" x="201.38" y="-334.5" font-family="Helvetica,sans-Serif" font-size="10.00">_print</text>
</a>
</g>
</g>
<!-- Node1&#45;&gt;Node4 -->
<g id="edge3_Node000001_Node000004" class="edge">
<title>Node1&#45;&gt;Node4</title>
<g id="a_edge3_Node000001_Node000004"><a xlink:title=" ">
<path fill="none" stroke="#63b8ff" d="M52.87,-222.44C64.04,-243.66 92.21,-292.07 129.25,-319 130.78,-320.11 132.36,-321.18 133.99,-322.2"/>
<polygon fill="#63b8ff" stroke="#63b8ff" points="131.92,-325.05 142.36,-326.84 135.31,-318.93 131.92,-325.05"/>
</a>
</g>
</g>
<!-- Node5 -->
<g id="Node000005" class="node">
<title>Node5</title>
<g id="a_Node000005"><a xlink:href="group__ads1110__interface__driver.html#gabc4b7fddd415af61b3f1f4c3e27ee2d3" target="_top" xlink:title="interface delay ms">
<polygon fill="white" stroke="#666666" points="272,-310 130.75,-310 130.75,-290 272,-290 272,-310"/>
<text xml:space="preserve" text-anchor="middle" x="201.38" y="-296.5" font-family="Helvetica,sans-Serif" font-size="10.00">ads1110_interface_delay_ms</text>
</a>
</g>
</g>
<!-- Node1&#45;&gt;Node5 -->
<g id="edge4_Node000001_Node000005" class="edge">
<title>Node1&#45;&gt;Node5</title>
<g id="a_edge4_Node000001_Node000005"><a xlink:title=" ">
<path fill="none" stroke="#63b8ff" d="M56.87,-222.29C71,-237.4 99.48,-265.45 129.25,-281 132.48,-282.69 135.87,-284.23 139.35,-285.65"/>
<polygon fill="#63b8ff" stroke="#63b8ff" points="137.95,-288.86 148.54,-289 140.35,-282.29 137.95,-288.86"/>
</a>
</g>
</g>
<!-- Node6 -->
<g id="Node000006" class="node">
<title>Node6</title>
<g id="a_Node000006"><a xlink:href="group__ads1110__interface__driver.html#ga772b8534ddf00c12de810227fc342525" target="_top" xlink:title="interface iic bus deinit">
<polygon fill="white" stroke="#666666" points="255.88,-272 146.88,-272 146.88,-240 255.88,-240 255.88,-272"/>
<text xml:space="preserve" text-anchor="start" x="154.88" y="-258.5" font-family="Helvetica,sans-Serif" font-size="10.00">ads1110_interface_iic</text>
<text xml:space="preserve" text-anchor="middle" x="201.38" y="-246.5" font-family="Helvetica,sans-Serif" font-size="10.00">_deinit</text>
</a>
</g>
</g>
<!-- Node1&#45;&gt;Node6 -->
<g id="edge5_Node000001_Node000006" class="edge">
<title>Node1&#45;&gt;Node6</title>
<g id="a_edge5_Node000001_Node000006"><a xlink:title=" ">
<path fill="none" stroke="#63b8ff" d="M83.82,-222.43C99.31,-226.89 117.88,-232.24 135.6,-237.34"/>
<polygon fill="#63b8ff" stroke="#63b8ff" points="134.45,-240.65 145.03,-240.06 136.39,-233.93 134.45,-240.65"/>
</a>
</g>
</g>
<!-- Node7 -->
<g id="Node000007" class="node">
<title>Node7</title>
<g id="a_Node000007"><a xlink:href="group__ads1110__interface__driver.html#ga582208e0725b0e9654f50d2048073d00" target="_top" xlink:title="interface iic bus init">
<polygon fill="white" stroke="#666666" points="264.88,-222 137.88,-222 137.88,-202 264.88,-202 264.88,-222"/>
<text xml:space="preserve" text-anchor="middle" x="201.38" y="-208.5" font-family="Helvetica,sans-Serif" font-size="10.00">ads1110_interface_iic_init</text>
</a>
</g>
</g>
<!-- Node1&#45;&gt;Node7 -->
<g id="edge6_Node000001_Node000007" class="edge">
<title>Node1&#45;&gt;Node7</title>
<g id="a_edge6_Node000001_Node000007"><a xlink:title=" ">
<path fill="none" stroke="#63b8ff" d="M93.46,-212C103.87,-212 115.19,-212 126.44,-212"/>
<polygon fill="#63b8ff" stroke="#63b8ff" points="126.12,-215.5 136.12,-212 126.12,-208.5 126.12,-215.5"/>
</a>
</g>
</g>
<!-- Node8 -->
<g id="Node000008" class="node">
<title>Node8</title>
<g id="a_Node000008"><a xlink:href="group__ads1110__interface__driver.html#ga51bac0618c22c8a55e230fde75417051" target="_top" xlink:title="interface iic bus read command">
<polygon fill="white" stroke="#666666" points="255.88,-184 146.88,-184 146.88,-152 255.88,-152 255.88,-184"/>
<text xml:space="preserve" text-anchor="start" x="154.88" y="-170.5" font-family="Helvetica,sans-Serif" font-size="10.00">ads1110_interface_iic</text>
<text xml:space="preserve" text-anchor="middle" x="201.38" y="-158.5" font-family="Helvetica,sans-Serif" font-size="10.00">_read_cmd</text>
</a>
</g>
</g>
<!-- Node1&#45;&gt;Node8 -->
<g id="edge7_Node000001_Node000008" class="edge">
<title>Node1&#45;&gt;Node8</title>
<g id="a_edge7_Node000001_Node000008"><a xlink:title=" ">
<path fill="none" stroke="#63b8ff" d="M83.82,-201.57C99.31,-197.11 117.88,-191.76 135.6,-186.66"/>
<polygon fill="#63b8ff" stroke="#63b8ff" points="136.39,-190.07 145.03,-183.94 134.45,-183.35 136.39,-190.07"/>
</a>
</g>
</g>
<!-- Node9 -->
<g id="Node000009" class="node">
<title>Node9</title>
<g id="a_Node000009"><a xlink:href="group__ads1110__interface__driver.html#gae5f36cb77aa3f08aa63592aab368357e" target="_top" xlink:title="interface iic bus write command">
<polygon fill="white" stroke="#666666" points="273.5,-134 129.25,-134 129.25,-114 273.5,-114 273.5,-134"/>
<text xml:space="preserve" text-anchor="middle" x="201.38" y="-120.5" font-family="Helvetica,sans-Serif" font-size="10.00">ads1110_interface_write_cmd</text>
</a>
</g>
</g>
<!-- Node1&#45;&gt;Node9 -->
<g id="edge8_Node000001_Node000009" class="edge">
<title>Node1&#45;&gt;Node9</title>
<g id="a_edge8_Node000001_Node000009"><a xlink:title=" ">
<path fill="none" stroke="#63b8ff" d="M56.87,-201.71C71,-186.6 99.48,-158.55 129.25,-143 132.48,-141.31 135.87,-139.77 139.35,-138.35"/>
<polygon fill="#63b8ff" stroke="#63b8ff" points="140.35,-141.71 148.54,-135 137.95,-135.14 140.35,-141.71"/>
</a>
</g>
</g>
<!-- Node10 -->
<g id="Node000010" class="node">
<title>Node10</title>
<g id="a_Node000010"><a xlink:href="group__ads1110__base__driver.html#ga5a3a33068b5131767a51d52525d32c21" target="_top" xlink:title="set the iic address pin">
<polygon fill="white" stroke="#666666" points="257.38,-96 145.38,-96 145.38,-76 257.38,-76 257.38,-96"/>
<text xml:space="preserve" text-anchor="middle" x="201.38" y="-82.5" font-family="Helvetica,sans-Serif" font-size="10.00">ads1110_set_addr_pin</text>
</a>
</g>
</g>
<!-- Node1&#45;&gt;Node10 -->
<g id="edge9_Node000001_Node000010" class="edge">
<title>Node1&#45;&gt;Node10</title>
<g id="a_edge9_Node000001_Node000010"><a xlink:title=" ">
<path fill="none" stroke="#63b8ff" d="M52.54,-201.65C63.29,-180.17 91.01,-130.61 129.25,-105 131.24,-103.67 133.32,-102.43 135.47,-101.27"/>
<polygon fill="#63b8ff" stroke="#63b8ff" points="136.9,-104.47 144.53,-97.12 133.98,-98.1 136.9,-104.47"/>
</a>
</g>
</g>
<!-- Node11 -->
<g id="Node000011" class="node">
<title>Node11</title>
<g id="a_Node000011"><a xlink:href="group__ads1110__base__driver.html#gac9fa03cdf3857612153ef63066581382" target="_top" xlink:title="set adc gain">
<polygon fill="white" stroke="#666666" points="248,-58 154.75,-58 154.75,-38 248,-38 248,-58"/>
<text xml:space="preserve" text-anchor="middle" x="201.38" y="-44.5" font-family="Helvetica,sans-Serif" font-size="10.00">ads1110_set_gain</text>
</a>
</g>
</g>
<!-- Node1&#45;&gt;Node11 -->
<g id="edge10_Node000001_Node000011" class="edge">
<title>Node1&#45;&gt;Node11</title>
<g id="a_edge10_Node000001_Node000011"><a xlink:title=" ">
<path fill="none" stroke="#63b8ff" d="M50.37,-201.74C58.03,-175.14 82.22,-103.47 129.25,-67 133.74,-63.52 138.82,-60.67 144.15,-58.34"/>
<polygon fill="#63b8ff" stroke="#63b8ff" points="145.02,-61.75 153.19,-55.01 142.59,-55.19 145.02,-61.75"/>
</a>
</g>
</g>
<!-- Node12 -->
<g id="Node000012" class="node">
<title>Node12</title>
<g id="a_Node000012"><a xlink:href="group__ads1110__base__driver.html#ga0bc80950c85056d3c9d98442dca9dcf1" target="_top" xlink:title="set the sample rate">
<polygon fill="white" stroke="#666666" points="247.25,-20 155.5,-20 155.5,0 247.25,0 247.25,-20"/>
<text xml:space="preserve" text-anchor="middle" x="201.38" y="-6.5" font-family="Helvetica,sans-Serif" font-size="10.00">ads1110_set_rate</text>
</a>
</g>
</g>
<!-- Node1&#45;&gt;Node12 -->
<g id="edge11_Node000001_Node000012" class="edge">
<title>Node1&#45;&gt;Node12</title>
<g id="a_edge11_Node000001_Node000012"><a xlink:title=" ">
<path fill="none" stroke="#63b8ff" d="M49.06,-201.88C53.98,-170.95 73.14,-76.86 129.25,-29 133.87,-25.06 139.22,-21.93 144.88,-19.44"/>
<polygon fill="#63b8ff" stroke="#63b8ff" points="145.69,-22.87 153.87,-16.14 143.28,-16.3 145.69,-22.87"/>
</a>
</g>
</g>
</g>
</svg>
