<?xml version="1.0" encoding="UTF-8" standalone="no"?>
<!DOCTYPE svg PUBLIC "-//W3C//DTD SVG 1.1//EN"
 "http://www.w3.org/Graphics/SVG/1.1/DTD/svg11.dtd">
<!-- Generated by graphviz version 13.1.0 (20250701.0955)
 -->
<!-- Title: ads1110_basic_init Pages: 1 -->
<svg width="294pt" height="482pt"
 viewBox="0.00 0.00 294.00 482.00" xmlns="http://www.w3.org/2000/svg" xmlns:xlink="http://www.w3.org/1999/xlink">
<g id="graph0" class="graph" transform="scale(1 1) rotate(0) translate(4 478)">
<title>ads1110_basic_init</title>
<!-- Node1 -->
<g id="Node000001" class="node">
<title>Node1</title>
<g id="a_Node000001"><a xlink:title="basic example init">
<polygon fill="#999999" stroke="#666666" points="97.75,-238 0,-238 0,-218 97.75,-218 97.75,-238"/>
<text xml:space="preserve" text-anchor="middle" x="48.88" y="-224.5" font-family="Helvetica,sans-Serif" font-size="10.00">ads1110_basic_init</text>
</a>
</g>
</g>
<!-- Node2 -->
<g id="Node000002" class="node">
<title>Node2</title>
<g id="a_Node000002"><a xlink:href="group__ads1110__base__driver.html#ga12f1f793cf0fa2205a0ce7475962ef1f" target="_top" xlink:title="close the chip">
<polygon fill="white" stroke="#666666" points="249.88,-474 170.12,-474 170.12,-454 249.88,-454 249.88,-474"/>
<text xml:space="preserve" text-anchor="middle" x="210" y="-460.5" font-family="Helvetica,sans-Serif" font-size="10.00">ads1110_deinit</text>
</a>
</g>
</g>
<!-- Node1&#45;&gt;Node2 -->
<g id="edge1_Node000001_Node000002" class="edge">
<title>Node1&#45;&gt;Node2</title>
<g id="a_edge1_Node000001_Node000002"><a xlink:title=" ">
<path fill="none" stroke="#63b8ff" d="M50.64,-238.49C53.76,-273.5 68.73,-387.44 133.75,-445 140.78,-451.22 149.56,-455.47 158.61,-458.35"/>
<polygon fill="#63b8ff" stroke="#63b8ff" points="157.66,-461.72 168.22,-460.84 159.42,-454.94 157.66,-461.72"/>
</a>
</g>
</g>
<!-- Node3 -->
<g id="Node000003" class="node">
<title>Node3</title>
<g id="a_Node000003"><a xlink:href="group__ads1110__base__driver.html#ga9fee93b4a7461ee38872c77130fafc05" target="_top" xlink:title="initialize the chip">
<polygon fill="white" stroke="#666666" points="244.62,-436 175.38,-436 175.38,-416 244.62,-416 244.62,-436"/>
<text xml:space="preserve" text-anchor="middle" x="210" y="-422.5" font-family="Helvetica,sans-Serif" font-size="10.00">ads1110_init</text>
</a>
</g>
</g>
<!-- Node1&#45;&gt;Node3 -->
<g id="edge2_Node000001_Node000003" class="edge">
<title>Node1&#45;&gt;Node3</title>
<g id="a_edge2_Node000001_Node000003"><a xlink:title=" ">
<path fill="none" stroke="#63b8ff" d="M51.56,-238.38C57.14,-269.19 77.9,-360.91 133.75,-407 142.31,-414.07 153.16,-418.55 163.93,-421.39"/>
<polygon fill="#63b8ff" stroke="#63b8ff" points="163.03,-424.77 173.55,-423.46 164.51,-417.93 163.03,-424.77"/>
</a>
</g>
</g>
<!-- Node4 -->
<g id="Node000004" class="node">
<title>Node4</title>
<g id="a_Node000004"><a xlink:href="group__ads1110__interface__driver.html#gae3ed663ce9367d3e79b18e435e70e25c" target="_top" xlink:title="interface print format data">
<polygon fill="white" stroke="#666666" points="272.75,-398 147.25,-398 147.25,-366 272.75,-366 272.75,-398"/>
<text xml:space="preserve" text-anchor="start" x="155.25" y="-384.5" font-family="Helvetica,sans-Serif" font-size="10.00">ads1110_interface_debug</text>
<text xml:space="preserve" text-anchor="middle" x="210" y="-372.5" font-family="Helvetica,sans-Serif" font-size="10.00">_print</text>
</a>
</g>
</g>
<!-- Node1&#45;&gt;Node4 -->
<g id="edge3_Node000001_Node000004" class="edge">
<title>Node1&#45;&gt;Node4</title>
<g id="a_edge3_Node000001_Node000004"><a xlink:title=" ">
<path fill="none" stroke="#63b8ff" d="M53.8,-238.4C63.51,-262.77 91.04,-324.02 133.75,-357 135.08,-358.03 136.45,-359.01 137.86,-359.95"/>
<polygon fill="#63b8ff" stroke="#63b8ff" points="135.91,-362.87 146.31,-364.88 139.43,-356.82 135.91,-362.87"/>
</a>
</g>
</g>
<!-- Node5 -->
<g id="Node000005" class="node">
<title>Node5</title>
<g id="a_Node000005"><a xlink:href="group__ads1110__interface__driver.html#gabc4b7fddd415af61b3f1f4c3e27ee2d3" target="_top" xlink:title="interface delay ms">
<polygon fill="white" stroke="#666666" points="280.62,-348 139.38,-348 139.38,-328 280.62,-328 280.62,-348"/>
<text xml:space="preserve" text-anchor="middle" x="210" y="-334.5" font-family="Helvetica,sans-Serif" font-size="10.00">ads1110_interface_delay_ms</text>
</a>
</g>
</g>
<!-- Node1&#45;&gt;Node5 -->
<g id="edge4_Node000001_Node000005" class="edge">
<title>Node1&#45;&gt;Node5</title>
<g id="a_edge4_Node000001_Node000005"><a xlink:title=" ">
<path fill="none" stroke="#63b8ff" d="M56.33,-238.26C68.84,-257.27 98.3,-297.91 133.75,-319 136.37,-320.56 139.12,-321.99 141.95,-323.31"/>
<polygon fill="#63b8ff" stroke="#63b8ff" points="140.5,-326.5 151.08,-327.01 143.13,-320.01 140.5,-326.5"/>
</a>
</g>
</g>
<!-- Node6 -->
<g id="Node000006" class="node">
<title>Node6</title>
<g id="a_Node000006"><a xlink:href="group__ads1110__interface__driver.html#ga772b8534ddf00c12de810227fc342525" target="_top" xlink:title="interface iic bus deinit">
<polygon fill="white" stroke="#666666" points="264.5,-310 155.5,-310 155.5,-278 264.5,-278 264.5,-310"/>
<text xml:space="preserve" text-anchor="start" x="163.5" y="-296.5" font-family="Helvetica,sans-Serif" font-size="10.00">ads1110_interface_iic</text>
<text xml:space="preserve" text-anchor="middle" x="210" y="-284.5" font-family="Helvetica,sans-Serif" font-size="10.00">_deinit</text>
</a>
</g>
</g>
<!-- Node1&#45;&gt;Node6 -->
<g id="edge5_Node000001_Node000006" class="edge">
<title>Node1&#45;&gt;Node6</title>
<g id="a_edge5_Node000001_Node000006"><a xlink:title=" ">
<path fill="none" stroke="#63b8ff" d="M69.2,-238.36C85.98,-247.15 111.09,-259.75 133.75,-269 137.61,-270.58 141.61,-272.13 145.66,-273.64"/>
<polygon fill="#63b8ff" stroke="#63b8ff" points="144.43,-276.92 155.03,-277.03 146.81,-270.34 144.43,-276.92"/>
</a>
</g>
</g>
<!-- Node7 -->
<g id="Node000007" class="node">
<title>Node7</title>
<g id="a_Node000007"><a xlink:href="group__ads1110__interface__driver.html#ga582208e0725b0e9654f50d2048073d00" target="_top" xlink:title="interface iic bus init">
<polygon fill="white" stroke="#666666" points="273.5,-260 146.5,-260 146.5,-240 273.5,-240 273.5,-260"/>
<text xml:space="preserve" text-anchor="middle" x="210" y="-246.5" font-family="Helvetica,sans-Serif" font-size="10.00">ads1110_interface_iic_init</text>
</a>
</g>
</g>
<!-- Node1&#45;&gt;Node7 -->
<g id="edge6_Node000001_Node000007" class="edge">
<title>Node1&#45;&gt;Node7</title>
<g id="a_edge6_Node000001_Node000007"><a xlink:title=" ">
<path fill="none" stroke="#63b8ff" d="M98.05,-234.66C109.68,-236.27 122.37,-238.02 134.88,-239.75"/>
<polygon fill="#63b8ff" stroke="#63b8ff" points="134.39,-243.22 144.78,-241.12 135.35,-236.28 134.39,-243.22"/>
</a>
</g>
</g>
<!-- Node8 -->
<g id="Node000008" class="node">
<title>Node8</title>
<g id="a_Node000008"><a xlink:href="group__ads1110__interface__driver.html#ga51bac0618c22c8a55e230fde75417051" target="_top" xlink:title="interface iic bus read command">
<polygon fill="white" stroke="#666666" points="264.5,-222 155.5,-222 155.5,-190 264.5,-190 264.5,-222"/>
<text xml:space="preserve" text-anchor="start" x="163.5" y="-208.5" font-family="Helvetica,sans-Serif" font-size="10.00">ads1110_interface_iic</text>
<text xml:space="preserve" text-anchor="middle" x="210" y="-196.5" font-family="Helvetica,sans-Serif" font-size="10.00">_read_cmd</text>
</a>
</g>
</g>
<!-- Node1&#45;&gt;Node8 -->
<g id="edge7_Node000001_Node000008" class="edge">
<title>Node1&#45;&gt;Node8</title>
<g id="a_edge7_Node000001_Node000008"><a xlink:title=" ">
<path fill="none" stroke="#63b8ff" d="M98.05,-221.34C112.55,-219.33 128.71,-217.1 144.11,-214.97"/>
<polygon fill="#63b8ff" stroke="#63b8ff" points="144.22,-218.49 153.65,-213.65 143.26,-211.56 144.22,-218.49"/>
</a>
</g>
</g>
<!-- Node9 -->
<g id="Node000009" class="node">
<title>Node9</title>
<g id="a_Node000009"><a xlink:href="group__ads1110__interface__driver.html#gae5f36cb77aa3f08aa63592aab368357e" target="_top" xlink:title="interface iic bus write command">
<polygon fill="white" stroke="#666666" points="282.12,-172 137.88,-172 137.88,-152 282.12,-152 282.12,-172"/>
<text xml:space="preserve" text-anchor="middle" x="210" y="-158.5" font-family="Helvetica,sans-Serif" font-size="10.00">ads1110_interface_write_cmd</text>
</a>
</g>
</g>
<!-- Node1&#45;&gt;Node9 -->
<g id="edge8_Node000001_Node000009" class="edge">
<title>Node1&#45;&gt;Node9</title>
<g id="a_edge8_Node000001_Node000009"><a xlink:title=" ">
<path fill="none" stroke="#63b8ff" d="M65.33,-217.69C81.71,-207.17 108.63,-191.01 133.75,-181 138.66,-179.05 143.82,-177.25 149.06,-175.6"/>
<polygon fill="#63b8ff" stroke="#63b8ff" points="149.77,-179.03 158.38,-172.85 147.8,-172.32 149.77,-179.03"/>
</a>
</g>
</g>
<!-- Node10 -->
<g id="Node000010" class="node">
<title>Node10</title>
<g id="a_Node000010"><a xlink:href="group__ads1110__base__driver.html#ga5a3a33068b5131767a51d52525d32c21" target="_top" xlink:title="set the iic address pin">
<polygon fill="white" stroke="#666666" points="266,-134 154,-134 154,-114 266,-114 266,-134"/>
<text xml:space="preserve" text-anchor="middle" x="210" y="-120.5" font-family="Helvetica,sans-Serif" font-size="10.00">ads1110_set_addr_pin</text>
</a>
</g>
</g>
<!-- Node1&#45;&gt;Node10 -->
<g id="edge9_Node000001_Node000010" class="edge">
<title>Node1&#45;&gt;Node10</title>
<g id="a_edge9_Node000001_Node000010"><a xlink:title=" ">
<path fill="none" stroke="#63b8ff" d="M57.11,-217.58C70.23,-199.52 99.74,-162.46 133.75,-143 136.75,-141.28 139.91,-139.72 143.16,-138.29"/>
<polygon fill="#63b8ff" stroke="#63b8ff" points="144.3,-141.61 152.37,-134.75 141.78,-135.07 144.3,-141.61"/>
</a>
</g>
</g>
<!-- Node11 -->
<g id="Node000011" class="node">
<title>Node11</title>
<g id="a_Node000011"><a xlink:href="group__ads1110__base__driver.html#gac9fa03cdf3857612153ef63066581382" target="_top" xlink:title="set adc gain">
<polygon fill="white" stroke="#666666" points="256.62,-96 163.38,-96 163.38,-76 256.62,-76 256.62,-96"/>
<text xml:space="preserve" text-anchor="middle" x="210" y="-82.5" font-family="Helvetica,sans-Serif" font-size="10.00">ads1110_set_gain</text>
</a>
</g>
</g>
<!-- Node1&#45;&gt;Node11 -->
<g id="edge10_Node000001_Node000011" class="edge">
<title>Node1&#45;&gt;Node11</title>
<g id="a_edge10_Node000001_Node000011"><a xlink:title=" ">
<path fill="none" stroke="#63b8ff" d="M53.93,-217.53C63.74,-193.61 91.16,-134.75 133.75,-105 139.4,-101.05 145.81,-97.92 152.43,-95.44"/>
<polygon fill="#63b8ff" stroke="#63b8ff" points="153.06,-98.91 161.51,-92.52 150.91,-92.25 153.06,-98.91"/>
</a>
</g>
</g>
<!-- Node12 -->
<g id="Node000012" class="node">
<title>Node12</title>
<g id="a_Node000012"><a xlink:href="group__ads1110__base__driver.html#ga0bc80950c85056d3c9d98442dca9dcf1" target="_top" xlink:title="set the sample rate">
<polygon fill="white" stroke="#666666" points="255.88,-58 164.12,-58 164.12,-38 255.88,-38 255.88,-58"/>
<text xml:space="preserve" text-anchor="middle" x="210" y="-44.5" font-family="Helvetica,sans-Serif" font-size="10.00">ads1110_set_rate</text>
</a>
</g>
</g>
<!-- Node1&#45;&gt;Node12 -->
<g id="edge11_Node000001_Node000012" class="edge">
<title>Node1&#45;&gt;Node12</title>
<g id="a_edge11_Node000001_Node000012"><a xlink:title=" ">
<path fill="none" stroke="#63b8ff" d="M52.09,-217.84C58.87,-189.31 82.08,-107.85 133.75,-67 139.57,-62.4 146.38,-58.89 153.47,-56.23"/>
<polygon fill="#63b8ff" stroke="#63b8ff" points="154.06,-59.72 162.54,-53.36 151.95,-53.04 154.06,-59.72"/>
</a>
</g>
</g>
<!-- Node13 -->
<g id="Node000013" class="node">
<title>Node13</title>
<g id="a_Node000013"><a xlink:href="group__ads1110__base__driver.html#gada04ce418b3a636be8cb1030de101a90" target="_top" xlink:title="start the chip reading">
<polygon fill="white" stroke="#666666" points="286.25,-20 133.75,-20 133.75,0 286.25,0 286.25,-20"/>
<text xml:space="preserve" text-anchor="middle" x="210" y="-6.5" font-family="Helvetica,sans-Serif" font-size="10.00">ads1110_start_continuous_read</text>
</a>
</g>
</g>
<!-- Node1&#45;&gt;Node13 -->
<g id="edge12_Node000001_Node000013" class="edge">
<title>Node1&#45;&gt;Node13</title>
<g id="a_edge12_Node000001_Node000013"><a xlink:title=" ">
<path fill="none" stroke="#63b8ff" d="M50.99,-217.91C55.17,-185.21 72.88,-81.28 133.75,-29 134.87,-28.04 136.03,-27.12 137.23,-26.25"/>
<polygon fill="#63b8ff" stroke="#63b8ff" points="138.93,-29.31 145.75,-21.2 135.36,-23.29 138.93,-29.31"/>
</a>
</g>
</g>
</g>
</svg>
